<svg style="display:none;" version="1.1" xmlns="http://www.w3.org/2000/svg" xmlns:xlink="http://www.w3.org/1999/xlink">
  <defs>
    <!-- Placeholder for graphics to use in wireframe phase of the project. -->
    <symbol id="symbol-placeholder" viewBox="0 0 90 90">
      <path d="M27.5 52.5L40 67.5L57.5 45L80 75H10L27.5 52.5ZM90 80V10C90 4.45 85.5 0 80 0H10C7.34784 0 4.8043 1.05357 2.92893 2.92893C1.05357 4.8043 0 7.34784 0 10V80C0 82.6522 1.05357 85.1957 2.92893 87.0711C4.8043 88.9464 7.34784 90 10 90H80C82.6522 90 85.1957 88.9464 87.0711 87.0711C88.9464 85.1957 90 82.6522 90 80Z" fill="#ADADAE"/>
    </symbol>

    <!-- Header logo and interface icons -->
    <symbol id="symbol-logo" viewBox="0 0 90 90">
      <path d="M27.5 52.5L40 67.5L57.5 45L80 75H10L27.5 52.5ZM90 80V10C90 4.45 85.5 0 80 0H10C7.34784 0 4.8043 1.05357 2.92893 2.92893C1.05357 4.8043 0 7.34784 0 10V80C0 82.6522 1.05357 85.1957 2.92893 87.0711C4.8043 88.9464 7.34784 90 10 90H80C82.6522 90 85.1957 88.9464 87.0711 87.0711C88.9464 85.1957 90 82.6522 90 80Z" fill="#ADADAE"/>
    </symbol>
    <symbol id="symbol-menu" viewBox="0 0 32 32">
      <path d="M1.6 5.4h28.8c0.8 0 1.6 0.8 1.6 1.6v0 0c0 0.8-0.8 1.6-1.6 1.6h-28.8c-0.8 0-1.6-0.6-1.6-1.6v0 0c0-0.8 0.8-1.6 1.6-1.6z"></path>
      <path d="M1.6 14.4h28.8c0.8 0 1.6 0.8 1.6 1.6v0 0c0 0.8-0.8 1.6-1.6 1.6h-28.8c-0.8 0-1.6-0.8-1.6-1.6v0 0c0-0.8 0.8-1.6 1.6-1.6z"></path>
      <path d="M1.6 23.4h28.8c0.8 0 1.6 0.8 1.6 1.6v0 0c0 0.8-0.8 1.6-1.6 1.6h-28.8c-0.8 0-1.6-0.8-1.6-1.6v0 0c0-1 0.8-1.6 1.6-1.6z"></path>
    </symbol>
    <symbol id="symbol-close" viewBox="-1 0 34 32">
      <path d="M0.6 28.4l27.8-27.8c0.8-0.8 2.2-0.8 3 0v0 0c0.8 0.8 0.8 2.2 0 3l-27.8 27.8c-0.8 0.8-2.2 0.8-3 0v0 0c-0.8-0.8-0.8-2.2 0-3z"></path>
      <path d="M3.6 0.6l27.8 27.8c0.8 0.8 0.8 2.2 0 3v0 0c-0.8 0.8-2.2 0.8-3 0l-27.8-27.8c-0.8-0.8-0.8-2.2 0-3v0 0c0.8-0.8 2.2-0.8 3 0z"></path>
    </symbol>
    <symbol id="symbol-search" viewBox="-1 0 34 32">
      <path d="M31.4 28.6l-6.2-6.2c1.8-2.4 2.8-5.2 2.8-8.4 0-7.8-6.2-14-14-14s-14 6.2-14 14 6.2 14 14 14c3.2 0 6-1 8.4-2.8l6.2 6.2c0.4 0.4 1 0.6 1.4 0.6 0.6 0 1-0.2 1.4-0.6 0.8-0.8 0.8-2 0-2.8v0zM4 14c0-5.6 4.4-10 10-10s10 4.4 10 10-4.4 10-10 10-10-4.4-10-10v0z"></path>
    </symbol>
    <symbol id="symbol-open" viewBox="0 0 32 32">
      <path d="M0.2 10.4l14.4 14.4c0.8 0.8 2 0.8 2.6 0l14.4-14.4c0.4-0.4 0.4-1 0.2-1.4l-1.4-1.4c-0.4-0.4-1-0.4-1.4 0l-12.4 12.4c-0.4 0.4-1 0.4-1.4 0l-12.2-12.2c-0.4-0.4-1-0.4-1.4 0l-1.4 1.2c-0.2 0.4-0.2 1 0 1.4z"></path>
    </symbol>
    <svg id="symbol-alert" viewBox="-1 -1 24 24">
      <path d="M21.7524 18.0474C22.4574 19.3597 21.5725 21 20.1644 21H1.83541C0.424618 21 -0.456222 19.3571 0.247396 18.0474L9.412 0.98376C10.1173 -0.329109 11.8839 -0.32673 12.588 0.98376L21.7524 18.0474ZM11 14.5195C10.0297 14.5195 9.24306 15.3642 9.24306 16.4062C9.24306 17.4483 10.0297 18.293 11 18.293C11.9703 18.293 12.757 17.4483 12.757 16.4062C12.757 15.3642 11.9703 14.5195 11 14.5195ZM9.33194 7.73776L9.61527 13.3159C9.62852 13.5769 9.8295 13.7812 10.0729 13.7812H11.9271C12.1705 13.7812 12.3715 13.5769 12.3847 13.3159L12.6681 7.73776C12.6824 7.45582 12.4734 7.21875 12.2104 7.21875H9.78955C9.52662 7.21875 9.31762 7.45582 9.33194 7.73776Z"></path>
    </svg>
    <symbol id="symbol-arrow-left" viewBox="0 0 17 12" >
      <path d="M7.74173 1.75893L6.31016 0.32743L0.637611 5.99907L6.31025 11.6716L7.74173 10.2407L4.50065 6.99966H17.0007V4.99966H4.50065L7.74173 1.75893Z"/>
    </symbol>

    <!-- Social media icons -->
    <symbol id="symbol-twitter" viewBox="0 0 23 18">
      <path d="M22.104 2.14403C21.2873 2.50321 20.4153 2.74751 19.4969 2.85893C20.4326 2.2949 21.1524 1.40628 21.4929 0.346034C20.6153 0.858164 19.643 1.23119 18.6076 1.43881C17.7806 0.553654 16.6027 0 15.294 0C12.7867 0 10.754 2.0326 10.754 4.5372C10.754 4.89707 10.7956 5.24311 10.871 5.57461C7.09716 5.39675 3.7517 3.58422 1.51355 0.844323C1.11977 1.51078 0.898996 2.28452 0.898996 3.12815C0.898996 4.70606 1.7018 6.09297 2.91776 6.90753C2.17309 6.88331 1.47272 6.67846 0.861625 6.33934V6.3954C0.861625 8.59618 2.42362 10.4315 4.50259 10.8496C4.12127 10.952 3.71917 11.0073 3.3067 11.0073C3.01672 11.0073 2.73921 10.9797 2.46169 10.9278C3.04372 12.7299 4.71783 14.0441 6.71029 14.0808C5.16006 15.2982 3.19528 16.0235 1.07963 16.0235C0.719751 16.0235 0.360568 16.002 0 15.9619C2.02015 17.2484 4.39948 18 6.97328 18C15.3279 18 19.8907 11.0828 19.8907 5.09431C19.8907 4.90123 19.8907 4.70676 19.8769 4.51298C20.7634 3.87697 21.5379 3.07347 22.1469 2.16202L22.104 2.14403Z" />
    </symbol>
    <symbol id="symbol-linkedin" viewBox="0 0 22 22">
      <path d="M16.6793 21.9864H21.0321V14.2883C21.0321 10.5105 20.2165 7.60796 15.8067 7.60796C13.6849 7.60796 12.264 8.77172 11.6798 9.87393H11.6238V7.9625H7.44272V21.9873H11.7956V15.047C11.7956 13.2173 12.1418 11.4473 14.4115 11.4473C16.6462 11.4473 16.6793 13.5397 16.6793 15.1664V21.9864Z" />
      <path d="M0 3.51414C0 4.90844 1.1261 6.04281 2.52683 6.04281C3.92206 6.04281 5.05458 4.90936 5.05458 3.51414C5.05458 2.11983 3.92297 0.987305 2.52683 0.987305C1.12702 0.987305 0 2.12075 0 3.51414Z" />
      <path d="M0.344443 7.96159V21.9864H4.70922V7.96159H0.344443Z" />
    </symbol>
    <symbol id="symbol-facebook" viewBox="0 0 12 22">
      <path d="M7.44676 21.9865V12.7992H10.5103L11.0929 8.99861H7.44676V6.53252C7.44676 5.493 7.95625 4.47977 9.58908 4.47977H11.2466V1.24451C11.2466 1.24451 9.74193 0.987305 8.30385 0.987305C5.30115 0.987305 3.33798 2.8075 3.33798 6.10274V8.99943H0V12.8001H3.33798V21.9873L7.44676 21.9865Z" />
    </symbol>
    <symbol id="symbol-youtube" viewBox="0 0 22 17">
      <path d="M21.5406 3.36146C21.2751 2.43092 20.5564 1.71221 19.6451 1.45155L19.6259 1.44674C17.9113 0.987317 11.0096 0.987317 11.0096 0.987317C11.0096 0.987317 4.12586 0.978376 2.3934 1.44674C1.46286 1.71221 0.744154 2.43092 0.483494 3.3422L0.478679 3.36146C0.174003 4.93023 0 6.73353 0 8.5781C0 8.61524 0 8.65307 0 8.69021V8.6847C0 8.71015 0 8.7411 0 8.77136C0 10.6159 0.174003 12.4192 0.506878 14.1668L0.478679 13.988C0.744154 14.9185 1.46286 15.6372 2.37414 15.8979L2.3934 15.9027C4.1066 16.3628 11.0096 16.3628 11.0096 16.3628C11.0096 16.3628 17.8927 16.3628 19.6259 15.9027C20.5564 15.6372 21.2751 14.9185 21.5358 14.0073L21.5406 13.988C21.8329 12.4522 22 10.6847 22 8.87865C22 8.81056 22 8.74247 21.9993 8.67439V8.6847C22 8.62143 22 8.54646 22 8.4715C22 6.66545 21.8329 4.89791 21.5131 3.1847L21.5406 3.36214V3.36146ZM8.80674 11.9777V5.3814L14.5509 8.6847L8.80674 11.9777Z" />
    </symbol>
    <symbol id="symbol-instagram" viewBox="0 0 21 22">
      <path d="M10.5 0.987305C7.64728 0.987305 7.29159 1.00043 6.17138 1.0503C5.05313 1.1028 4.29187 1.27868 3.6225 1.53855C2.93212 1.8063 2.34609 2.16593 1.76203 2.74934C1.17797 3.33274 0.817687 3.91812 0.55125 4.6098C0.291375 5.27918 0.114844 6.04043 0.063 7.15868C0.0105 8.2789 0 8.63459 0 11.4873C0 14.34 0.013125 14.6957 0.063 15.8159C0.1155 16.9335 0.291375 17.6954 0.55125 18.3648C0.819 19.0545 1.17862 19.6412 1.76203 20.2253C2.34544 20.808 2.93081 21.1696 3.6225 21.4361C4.29253 21.6953 5.05378 21.8725 6.17138 21.9243C7.29159 21.9768 7.64728 21.9873 10.5 21.9873C13.3527 21.9873 13.7084 21.9742 14.8286 21.9243C15.9462 21.8718 16.7081 21.6953 17.3775 21.4361C18.0672 21.1683 18.6539 20.808 19.238 20.2253C19.8207 19.6419 20.1823 19.0571 20.4487 18.3648C20.708 17.6954 20.8852 16.9335 20.937 15.8159C20.9895 14.6957 21 14.34 21 11.4873C21 8.63459 20.9869 8.2789 20.937 7.15868C20.8845 6.04109 20.708 5.27852 20.4487 4.6098C20.181 3.91943 19.8207 3.3334 19.238 2.74934C18.6546 2.16593 18.0698 1.80499 17.3775 1.53855C16.7081 1.27868 15.9462 1.10215 14.8286 1.0503C13.7084 0.997805 13.3527 0.987305 10.5 0.987305V0.987305ZM10.5 2.8773C13.3028 2.8773 13.6369 2.89109 14.744 2.93965C15.7677 2.98755 16.3236 3.15752 16.6924 3.30255C17.1839 3.49221 17.5324 3.71993 17.9018 4.08677C18.2687 4.45427 18.4958 4.8034 18.6861 5.29493C18.8298 5.6644 19.0011 6.21959 19.0477 7.24334C19.0975 8.35109 19.1087 8.6838 19.1087 11.4873C19.1087 14.2908 19.0956 14.6242 19.0437 15.7313C18.9906 16.755 18.8199 17.3109 18.6756 17.6797C18.4793 18.1712 18.2562 18.5197 17.8887 18.8891C17.5219 19.256 17.1675 19.4831 16.6812 19.6734C16.3137 19.8171 15.7493 19.9884 14.7256 20.035C13.6106 20.0848 13.2825 20.096 10.4738 20.096C7.66434 20.096 7.33622 20.0829 6.22191 20.031C5.1975 19.9779 4.63312 19.8072 4.26562 19.6629C3.76753 19.4666 3.42562 19.2435 3.05878 18.876C2.69062 18.5092 2.45503 18.1548 2.27128 17.6685C2.12691 17.301 1.95694 16.7366 1.90378 15.7129C1.86441 14.6104 1.85062 14.2698 1.85062 11.4742C1.85062 8.6779 1.86441 8.33665 1.90378 7.22102C1.95694 6.19727 2.12691 5.63355 2.27128 5.26605C2.45503 4.7673 2.69062 4.42605 3.05878 4.0579C3.42562 3.69105 3.76753 3.4548 4.26562 3.27237C4.63312 3.12734 5.18503 2.95671 6.20878 2.90421C7.32441 2.86484 7.65253 2.85171 10.4606 2.85171L10.5 2.8773ZM10.5 6.09555C7.52063 6.09555 5.10825 8.51055 5.10825 11.4873C5.10825 14.4667 7.52325 16.8791 10.5 16.8791C13.4794 16.8791 15.8917 14.4641 15.8917 11.4873C15.8917 8.50793 13.4767 6.09555 10.5 6.09555ZM10.5 14.9871C8.56603 14.9871 7.00022 13.4206 7.00022 11.4873C7.00022 9.55399 8.56669 7.98752 10.5 7.98752C12.4333 7.98752 13.9998 9.55399 13.9998 11.4873C13.9998 13.4206 12.4333 14.9871 10.5 14.9871ZM17.365 5.88293C17.365 6.57855 16.8 7.14293 16.105 7.14293C15.4094 7.14293 14.845 6.5779 14.845 5.88293C14.845 5.18796 15.4101 4.62359 16.105 4.62359C16.7987 4.62293 17.365 5.18796 17.365 5.88293Z" />
    </symbol>

    <!-- Content area action icons -->
    <symbol id="symbol-print" viewBox="0 0 17 16">
      <path d="M0.5 14.6667C0.5 15.4033 1.09667 16 1.83333 16H15.1667C15.9033 16 16.5 15.4033 16.5 14.6667V6.66667C16.5 5.93 15.9033 5.33333 15.1667 5.33333H14.1667V1.33333C14.1667 0.596667 13.57 0 12.8333 0H4.16667C3.43 0 2.83333 0.596667 2.83333 1.33333V5.33333H1.83333C1.09667 5.33333 0.5 5.93 0.5 6.66667V14.6667ZM12.5 2.4V6.26667C12.5 6.67333 12.1733 7 11.7667 7H5.23333C4.82667 7 4.5 6.67333 4.5 6.26667V2.4C4.5 1.99333 4.82667 1.66667 5.23333 1.66667H11.7667C12.1733 1.66667 12.5 1.99333 12.5 2.4ZM13.5 14.3333H3.5C3.13333 14.3333 2.83333 14.0333 2.83333 13.6667C2.83333 13.3 3.13333 13 3.5 13H13.5C13.8667 13 14.1667 13.3 14.1667 13.6667C14.1667 14.0333 13.8667 14.3333 13.5 14.3333ZM2.83333 10.8333C2.83333 10.3733 3.20667 10 3.66667 10C4.12667 10 4.5 10.3733 4.5 10.8333C4.5 11.2933 4.12667 11.6667 3.66667 11.6667C3.20667 11.6667 2.83333 11.2933 2.83333 10.8333Z" />
    </symbol>
    <symbol id="symbol-email" viewBox="0 0 21 15">
      <path d="M2.32199 0.421143H18.6518C19.7745 0.421143 20.693 1.21604 20.693 2.18759V12.7863C20.693 13.7578 19.7745 14.5527 18.6518 14.5527H2.32199C1.19931 14.5527 0.280762 13.7578 0.280762 12.7863L0.290968 2.18759C0.290968 1.21604 1.19931 0.421143 2.32199 0.421143ZM10.4868 8.37004L18.6517 3.95392V2.18747L10.4868 6.60359L2.32188 2.18747V3.95392L10.4868 8.37004Z" />
    </symbol>
    <symbol id="symbol-phone" viewBox="0 0 20 19">
      <path d="M15.0454 18.1228C9.23986 18.1228 0.824463 10.4407 0.824463 5.00784C0.824463 2.86258 2.27906 0.85083 4.76345 0.85083C5.28479 0.85083 7.63724 4.55387 7.63724 5.01081C7.63724 5.75854 5.22686 6.85046 5.22686 7.51214C5.22686 9.12035 10.5883 14.0637 12.3325 14.0637C13.0501 14.0637 14.2344 11.8412 15.0454 11.8412C15.1966 11.8412 19.3898 13.8856 19.5186 14.2358C20.4068 16.1407 17.0921 18.1228 15.0454 18.1228Z" />
    </symbol>

    <!-- Event icons -->
    <symbol id="symbol-calendar" viewBox="0 0 18 21">
      <path d="M15.985 18.4929V7.52394H2.016V18.4929H15.985ZM12.985 0.492943H15.001V2.50894H15.985C16.5163 2.50894 16.985 2.71194 17.391 3.11794C17.797 3.52394 18 3.99261 18 4.52394V18.4929C18 19.0243 17.797 19.4929 17.391 19.8989C16.985 20.3049 16.5163 20.5079 15.985 20.5079H2.016C1.45333 20.5079 0.976667 20.3126 0.586 19.9219C0.195333 19.5313 0 19.0546 0 18.4919V4.52294C0 3.99161 0.195333 3.52294 0.586 3.11694C0.976667 2.71094 1.45333 2.50794 2.016 2.50794H3V0.491943H5.016V2.50794H12.985V0.491943V0.492943Z">
    </symbol>
    <symbol id="symbol-clock" viewBox="0 0 20 21" fill="none" xmlns="http://www.w3.org/2000/svg">
      <path d="M10.501 5.48289V10.7329L15.001 13.4049L14.251 14.6709L9.001 11.4829V5.48289H10.501ZM9.985 18.5149C12.1723 18.5149 14.055 17.7259 15.633 16.1479C17.211 14.5699 18 12.6872 18 10.4999C18 8.31256 17.211 6.42989 15.633 4.85189C14.055 3.27389 12.1723 2.48489 9.985 2.48489C7.79767 2.48489 5.915 3.27389 4.337 4.85189C2.759 6.42989 1.97 8.31256 1.97 10.4999C1.97 12.6872 2.759 14.5699 4.337 16.1479C5.915 17.7259 7.79767 18.5149 9.985 18.5149ZM9.985 0.514893C12.735 0.514893 15.0867 1.49156 17.04 3.44489C18.9933 5.39823 19.97 7.74989 19.97 10.4999C19.97 13.2499 18.9933 15.6016 17.04 17.5549C15.0867 19.5082 12.735 20.4849 9.985 20.4849C7.235 20.4849 4.88333 19.5082 2.93 17.5549C0.976667 15.6016 0 13.2499 0 10.4999C0 7.74989 0.976667 5.39823 2.93 3.44489C4.88333 1.49156 7.235 0.514893 9.985 0.514893Z" fill="#474C55"/>
    </symbol>
  </defs>
</svg>
