<svg style="display:none;" version="1.1" xmlns="http://www.w3.org/2000/svg" xmlns:xlink="http://www.w3.org/1999/xlink">
  <defs>
    <symbol id="symbol-placeholder" viewBox="0 0 90 90">
      <path d="M27.5 52.5L40 67.5L57.5 45L80 75H10L27.5 52.5ZM90 80V10C90 4.45 85.5 0 80 0H10C7.34784 0 4.8043 1.05357 2.92893 2.92893C1.05357 4.8043 0 7.34784 0 10V80C0 82.6522 1.05357 85.1957 2.92893 87.0711C4.8043 88.9464 7.34784 90 10 90H80C82.6522 90 85.1957 88.9464 87.0711 87.0711C88.9464 85.1957 90 82.6522 90 80Z" fill="#ADADAE"/>
    </symbol>
    <symbol id="symbol-logo" viewBox="0 0 90 90">
      <path d="M27.5 52.5L40 67.5L57.5 45L80 75H10L27.5 52.5ZM90 80V10C90 4.45 85.5 0 80 0H10C7.34784 0 4.8043 1.05357 2.92893 2.92893C1.05357 4.8043 0 7.34784 0 10V80C0 82.6522 1.05357 85.1957 2.92893 87.0711C4.8043 88.9464 7.34784 90 10 90H80C82.6522 90 85.1957 88.9464 87.0711 87.0711C88.9464 85.1957 90 82.6522 90 80Z" fill="#ADADAE"/>
    </symbol>
    <symbol id="symbol-menu" viewBox="0 0 32 32">
      <path d="M1.6 5.4h28.8c0.8 0 1.6 0.8 1.6 1.6v0 0c0 0.8-0.8 1.6-1.6 1.6h-28.8c-0.8 0-1.6-0.6-1.6-1.6v0 0c0-0.8 0.8-1.6 1.6-1.6z"></path>
      <path d="M1.6 14.4h28.8c0.8 0 1.6 0.8 1.6 1.6v0 0c0 0.8-0.8 1.6-1.6 1.6h-28.8c-0.8 0-1.6-0.8-1.6-1.6v0 0c0-0.8 0.8-1.6 1.6-1.6z"></path>
      <path d="M1.6 23.4h28.8c0.8 0 1.6 0.8 1.6 1.6v0 0c0 0.8-0.8 1.6-1.6 1.6h-28.8c-0.8 0-1.6-0.8-1.6-1.6v0 0c0-1 0.8-1.6 1.6-1.6z"></path>
    </symbol>
    <symbol id="symbol-close" viewBox="0 0 32 32">
      <path d="M0.6 28.4l27.8-27.8c0.8-0.8 2.2-0.8 3 0v0 0c0.8 0.8 0.8 2.2 0 3l-27.8 27.8c-0.8 0.8-2.2 0.8-3 0v0 0c-0.8-0.8-0.8-2.2 0-3z"></path>
      <path d="M3.6 0.6l27.8 27.8c0.8 0.8 0.8 2.2 0 3v0 0c-0.8 0.8-2.2 0.8-3 0l-27.8-27.8c-0.8-0.8-0.8-2.2 0-3v0 0c0.8-0.8 2.2-0.8 3 0z"></path>
    </symbol>
    <symbol id="symbol-search" viewBox="0 0 32 32">
      <path d="M31.4 28.6l-6.2-6.2c1.8-2.4 2.8-5.2 2.8-8.4 0-7.8-6.2-14-14-14s-14 6.2-14 14 6.2 14 14 14c3.2 0 6-1 8.4-2.8l6.2 6.2c0.4 0.4 1 0.6 1.4 0.6 0.6 0 1-0.2 1.4-0.6 0.8-0.8 0.8-2 0-2.8v0zM4 14c0-5.6 4.4-10 10-10s10 4.4 10 10-4.4 10-10 10-10-4.4-10-10v0z"></path>
    </symbol>
    <symbol id="symbol-open" viewBox="0 0 32 32">
      <path d="M0.2 10.4l14.4 14.4c0.8 0.8 2 0.8 2.6 0l14.4-14.4c0.4-0.4 0.4-1 0.2-1.4l-1.4-1.4c-0.4-0.4-1-0.4-1.4 0l-12.4 12.4c-0.4 0.4-1 0.4-1.4 0l-12.2-12.2c-0.4-0.4-1-0.4-1.4 0l-1.4 1.2c-0.2 0.4-0.2 1 0 1.4z"></path>
    </symbol>
  </defs>
</svg>
